<svg xmlns="http://www.w3.org/2000/svg" width="1440" height="168" fill="none"><mask id="a" width="1440" height="168" x="0" y="0" mask-type="alpha" maskUnits="userSpaceOnUse"><path fill="#1B1A21" d="M1440 0H0v168h1440V0z"/></mask><g mask="url(#a)"><path fill="#1B1A21" d="M1440 0H0v168h1440V0z"/><g style="mix-blend-mode:screen" filter="url(#filter0_d)"><path fill="#A0F" d="M672 128c88-6 140.097 10.52 176 18 48 10 64 22 368 22 112 0 144-4 224-26v26H0v-26l40-12c20-6 40-10 68-10 76 0 124 44 332 44 88 0 144-30 232-36z"/></g><g style="mix-blend-mode:screen" filter="url(#filter1_d)"><path fill="#F4346F" d="M728 150c32-10 56-18 104-18s112 34 208 34c88 0 96-10 144-12s93.11 0 120 4c23.88 3.674 80 9.997 136 9.997L540 168H.061C39.557 167.97 136 142 184 134s108-8 152 0 104 34 204 34c140 0 156-8 188-18z"/></g><g style="mix-blend-mode:screen" filter="url(#filter2_d)"><path fill="#00F5FE" d="M0 168v-46c128 0 160 38 280 38 88 0 120-26 200-30 101.892-5.095 144.011 34.625 232 36 128 2 128.003-23.922 208-28 101.95-5.197 144 30 240 30s132-20 172-30 68-16 108-16v46H0z"/></g><g style="mix-blend-mode:screen" filter="url(#filter3_d)"><path fill="#00E676" d="M0 168v-14c80 0 159.852 14 280 14 80 0 143.996-22 240-22 80 0 80 22 280 22 160 0 199.996-38 360-42 111.97-2.799 160 28 280 28v14H0z"/></g></g><defs><filter id="filter0_d" width="1504" height="112" x="-32" y="80" color-interpolation-filters="sRGB" filterUnits="userSpaceOnUse"><feFlood flood-opacity="0" result="BackgroundImageFix"/><feColorMatrix in="SourceAlpha" type="matrix" values="0 0 0 0 0 0 0 0 0 0 0 0 0 0 0 0 0 0 127 0"/><feOffset dy="-8"/><feGaussianBlur stdDeviation="16"/><feColorMatrix type="matrix" values="0 0 0 0 0.771242 0 0 0 0 0.313725 0 0 0 0 1 0 0 0 0.3 0"/><feBlend in2="BackgroundImageFix" mode="normal" result="effect1_dropShadow"/><feBlend in="SourceGraphic" in2="effect1_dropShadow" mode="normal" result="shape"/></filter><filter id="filter1_d" width="1488" height="88" x="-24" y="96" color-interpolation-filters="sRGB" filterUnits="userSpaceOnUse"><feFlood flood-opacity="0" result="BackgroundImageFix"/><feColorMatrix in="SourceAlpha" type="matrix" values="0 0 0 0 0 0 0 0 0 0 0 0 0 0 0 0 0 0 127 0"/><feOffset dy="-8"/><feGaussianBlur stdDeviation="12"/><feColorMatrix type="matrix" values="0 0 0 0 0.956863 0 0 0 0 0.203922 0 0 0 0 0.435294 0 0 0 0.4 0"/><feBlend in2="BackgroundImageFix" mode="normal" result="effect1_dropShadow"/><feBlend in="SourceGraphic" in2="effect1_dropShadow" mode="normal" result="shape"/></filter><filter id="filter2_d" width="1504" height="110" x="-32" y="82" color-interpolation-filters="sRGB" filterUnits="userSpaceOnUse"><feFlood flood-opacity="0" result="BackgroundImageFix"/><feColorMatrix in="SourceAlpha" type="matrix" values="0 0 0 0 0 0 0 0 0 0 0 0 0 0 0 0 0 0 127 0"/><feOffset dy="-8"/><feGaussianBlur stdDeviation="16"/><feColorMatrix type="matrix" values="0 0 0 0 0 0 0 0 0 0.960784 0 0 0 0 0.996078 0 0 0 0.3 0"/><feBlend in2="BackgroundImageFix" mode="normal" result="effect1_dropShadow"/><feBlend in="SourceGraphic" in2="effect1_dropShadow" mode="normal" result="shape"/></filter><filter id="filter3_d" width="1496" height="98.18" x="-28" y="89.82" color-interpolation-filters="sRGB" filterUnits="userSpaceOnUse"><feFlood flood-opacity="0" result="BackgroundImageFix"/><feColorMatrix in="SourceAlpha" type="matrix" values="0 0 0 0 0 0 0 0 0 0 0 0 0 0 0 0 0 0 127 0"/><feOffset dy="-8"/><feGaussianBlur stdDeviation="14"/><feColorMatrix type="matrix" values="0 0 0 0 0 0 0 0 0 0.901961 0 0 0 0 0.462745 0 0 0 0.4 0"/><feBlend in2="BackgroundImageFix" mode="normal" result="effect1_dropShadow"/><feBlend in="SourceGraphic" in2="effect1_dropShadow" mode="normal" result="shape"/></filter></defs></svg>